<svg width="1099" height="408" viewBox="0 0 1099 408" fill="none" xmlns="http://www.w3.org/2000/svg">
<path d="M135.108 41.312V45.032C132.38 46.024 129.466 48.194 126.366 51.542C123.39 54.89 120.6 60.098 117.996 67.166L78.75 173.372C77.758 173.248 76.704 173.186 75.588 173.186C74.472 173.186 73.356 173.186 72.24 173.186C71.248 173.186 70.194 173.186 69.078 173.186C67.962 173.186 66.908 173.248 65.916 173.372L18.486 56.936C16.75 52.472 14.828 49.434 12.72 47.822C10.612 46.086 8.628 45.156 6.768 45.032V41.312C10.488 41.436 14.828 41.56 19.788 41.684C24.872 41.808 29.956 41.87 35.04 41.87C40.744 41.87 46.076 41.808 51.036 41.684C56.12 41.56 60.212 41.436 63.312 41.312V45.032C59.344 45.156 56.244 45.652 54.012 46.52C51.78 47.264 50.54 48.752 50.292 50.984C50.044 53.092 50.788 56.316 52.524 60.656L86.376 146.774L82.47 151.424L108.138 82.232C111.486 72.932 113.222 65.616 113.346 60.284C113.47 54.952 112.168 51.108 109.44 48.752C106.712 46.396 102.806 45.156 97.722 45.032V41.312C101.938 41.436 105.906 41.56 109.626 41.684C113.346 41.808 117.128 41.87 120.972 41.87C123.7 41.87 126.242 41.808 128.598 41.684C131.078 41.56 133.248 41.436 135.108 41.312ZM154.577 28.85C159.785 28.85 163.877 30.152 166.853 32.756C169.953 35.236 171.503 38.708 171.503 43.172C171.503 47.636 169.953 51.17 166.853 53.774C163.877 56.254 159.785 57.494 154.577 57.494C149.369 57.494 145.215 56.254 142.115 53.774C139.139 51.17 137.651 47.636 137.651 43.172C137.651 38.708 139.139 35.236 142.115 32.756C145.215 30.152 149.369 28.85 154.577 28.85ZM169.085 74.792V155.702C169.085 160.91 169.953 164.444 171.689 166.304C173.549 168.164 176.649 169.094 180.989 169.094V173C178.757 172.876 175.285 172.752 170.573 172.628C165.861 172.38 161.087 172.256 156.251 172.256C151.415 172.256 146.517 172.38 141.557 172.628C136.597 172.752 132.877 172.876 130.397 173V169.094C134.737 169.094 137.775 168.164 139.511 166.304C141.371 164.444 142.301 160.91 142.301 155.702V97.112C142.301 91.532 141.433 87.44 139.697 84.836C138.085 82.108 134.985 80.744 130.397 80.744V76.838C134.365 77.21 138.209 77.396 141.929 77.396C147.137 77.396 151.973 77.21 156.437 76.838C161.025 76.342 165.241 75.66 169.085 74.792ZM224.965 46.334V76.838H246.913V80.558H224.965V155.702C224.965 159.422 225.647 162.088 227.011 163.7C228.375 165.188 230.421 165.932 233.149 165.932C235.381 165.932 237.613 165.126 239.845 163.514C242.077 161.778 244.061 158.864 245.797 154.772L248.959 156.446C246.975 162.026 243.937 166.614 239.845 170.21C235.877 173.806 230.421 175.604 223.477 175.604C219.385 175.604 215.789 175.046 212.689 173.93C209.589 172.938 206.985 171.388 204.877 169.28C202.149 166.552 200.351 163.204 199.483 159.236C198.615 155.144 198.181 149.874 198.181 143.426V80.558H182.557V76.838H198.181V52.286C203.389 52.286 208.163 51.852 212.503 50.984C216.967 49.992 221.121 48.442 224.965 46.334ZM297.999 74.234C307.051 74.234 314.987 75.908 321.807 79.256C328.627 82.604 333.959 87.998 337.803 95.438C341.647 102.878 343.569 112.736 343.569 125.012C343.569 137.288 341.647 147.146 337.803 154.586C333.959 161.902 328.627 167.234 321.807 170.582C314.987 173.93 307.051 175.604 297.999 175.604C289.195 175.604 281.321 173.93 274.377 170.582C267.557 167.234 262.163 161.902 258.195 154.586C254.351 147.146 252.429 137.288 252.429 125.012C252.429 112.736 254.351 102.878 258.195 95.438C262.163 87.998 267.557 82.604 274.377 79.256C281.321 75.908 289.195 74.234 297.999 74.234ZM297.999 77.954C293.039 77.954 288.885 81.674 285.537 89.114C282.189 96.43 280.515 108.396 280.515 125.012C280.515 141.628 282.189 153.594 285.537 160.91C288.885 168.226 293.039 171.884 297.999 171.884C303.083 171.884 307.237 168.226 310.461 160.91C313.809 153.594 315.483 141.628 315.483 125.012C315.483 108.396 313.809 96.43 310.461 89.114C307.237 81.674 303.083 77.954 297.999 77.954ZM417.305 74.234C421.273 74.234 424.497 75.102 426.977 76.838C429.457 78.45 431.255 80.558 432.371 83.162C433.611 85.766 434.231 88.494 434.231 91.346C434.231 95.934 432.867 99.716 430.139 102.692C427.535 105.544 424.063 106.97 419.723 106.97C415.383 106.97 411.973 105.916 409.493 103.808C407.137 101.576 405.959 98.662 405.959 95.066C405.959 91.594 406.703 88.742 408.191 86.51C409.803 84.154 411.787 82.17 414.143 80.558C412.407 80.062 410.671 80.124 408.935 80.744C406.579 81.116 404.347 82.108 402.239 83.72C400.131 85.208 398.333 87.13 396.845 89.486C395.357 91.718 394.179 94.198 393.311 96.926C392.443 99.53 392.009 102.072 392.009 104.552V153.842C392.009 159.794 393.435 163.824 396.287 165.932C399.263 168.04 403.665 169.094 409.493 169.094V173C406.641 172.876 402.487 172.752 397.031 172.628C391.575 172.38 385.871 172.256 379.919 172.256C374.959 172.256 369.937 172.38 364.853 172.628C359.769 172.752 355.925 172.876 353.321 173V169.094C357.661 169.094 360.699 168.164 362.435 166.304C364.295 164.444 365.225 160.91 365.225 155.702V97.112C365.225 91.532 364.357 87.44 362.621 84.836C361.009 82.108 357.909 80.744 353.321 80.744V76.838C357.289 77.21 361.133 77.396 364.853 77.396C370.061 77.396 374.897 77.21 379.361 76.838C383.949 76.342 388.165 75.66 392.009 74.792V92.09C393.497 88.742 395.481 85.704 397.961 82.976C400.441 80.248 403.293 78.14 406.517 76.652C409.741 75.04 413.337 74.234 417.305 74.234ZM462.465 28.85C467.673 28.85 471.765 30.152 474.741 32.756C477.841 35.236 479.391 38.708 479.391 43.172C479.391 47.636 477.841 51.17 474.741 53.774C471.765 56.254 467.673 57.494 462.465 57.494C457.257 57.494 453.103 56.254 450.003 53.774C447.027 51.17 445.539 47.636 445.539 43.172C445.539 38.708 447.027 35.236 450.003 32.756C453.103 30.152 457.257 28.85 462.465 28.85ZM476.973 74.792V155.702C476.973 160.91 477.841 164.444 479.577 166.304C481.437 168.164 484.537 169.094 488.877 169.094V173C486.645 172.876 483.173 172.752 478.461 172.628C473.749 172.38 468.975 172.256 464.139 172.256C459.303 172.256 454.405 172.38 449.445 172.628C444.485 172.752 440.765 172.876 438.285 173V169.094C442.625 169.094 445.663 168.164 447.399 166.304C449.259 164.444 450.189 160.91 450.189 155.702V97.112C450.189 91.532 449.321 87.44 447.585 84.836C445.973 82.108 442.873 80.744 438.285 80.744V76.838C442.253 77.21 446.097 77.396 449.817 77.396C455.025 77.396 459.861 77.21 464.325 76.838C468.913 76.342 473.129 75.66 476.973 74.792ZM543.083 74.234C552.135 74.234 560.071 75.908 566.891 79.256C573.711 82.604 579.043 87.998 582.887 95.438C586.731 102.878 588.653 112.736 588.653 125.012C588.653 137.288 586.731 147.146 582.887 154.586C579.043 161.902 573.711 167.234 566.891 170.582C560.071 173.93 552.135 175.604 543.083 175.604C534.279 175.604 526.405 173.93 519.461 170.582C512.641 167.234 507.247 161.902 503.279 154.586C499.435 147.146 497.513 137.288 497.513 125.012C497.513 112.736 499.435 102.878 503.279 95.438C507.247 87.998 512.641 82.604 519.461 79.256C526.405 75.908 534.279 74.234 543.083 74.234ZM543.083 77.954C538.123 77.954 533.969 81.674 530.621 89.114C527.273 96.43 525.599 108.396 525.599 125.012C525.599 141.628 527.273 153.594 530.621 160.91C533.969 168.226 538.123 171.884 543.083 171.884C548.167 171.884 552.321 168.226 555.545 160.91C558.893 153.594 560.567 141.628 560.567 125.012C560.567 108.396 558.893 96.43 555.545 89.114C552.321 81.674 548.167 77.954 543.083 77.954ZM611.897 38.708C614.997 38.708 617.663 39.266 619.895 40.382C622.127 41.498 623.863 43.11 625.103 45.218C626.467 46.954 627.459 49.248 628.079 52.1C628.823 54.952 629.195 57.804 629.195 60.656C629.195 66.856 627.583 72.622 624.359 77.954C621.259 83.162 616.361 87.316 609.665 90.416L607.991 87.068C611.463 85.58 614.563 83.286 617.291 80.186C620.019 77.086 621.631 73.924 622.127 70.7C622.747 67.972 622.747 65.368 622.127 62.888C619.399 65.864 615.803 67.352 611.339 67.352C606.999 67.352 603.465 66.112 600.737 63.632C598.009 61.028 596.645 57.494 596.645 53.03C596.645 48.69 598.071 45.218 600.923 42.614C603.899 40.01 607.557 38.708 611.897 38.708ZM674.242 74.234C679.45 74.234 683.976 74.916 687.82 76.28C691.788 77.52 694.64 78.76 696.376 80C700.592 82.852 703.196 80.992 704.188 74.42H708.094C707.846 77.892 707.66 82.17 707.536 87.254C707.412 92.214 707.35 98.848 707.35 107.156H703.444C702.824 102.568 701.646 98.042 699.91 93.578C698.174 89.114 695.632 85.456 692.284 82.604C689.06 79.752 684.844 78.326 679.636 78.326C676.04 78.326 673.002 79.38 670.522 81.488C668.042 83.472 666.802 86.386 666.802 90.23C666.802 93.95 667.918 97.236 670.15 100.088C672.382 102.816 675.234 105.482 678.706 108.086C682.302 110.566 686.022 113.232 689.866 116.084C693.958 119.184 697.678 122.284 701.026 125.384C704.374 128.36 707.04 131.646 709.024 135.242C711.008 138.838 712 143.116 712 148.076C712 153.656 710.388 158.554 707.164 162.77C703.94 166.862 699.662 170.024 694.33 172.256C689.122 174.488 683.294 175.604 676.846 175.604C673.126 175.604 669.778 175.232 666.802 174.488C663.95 173.744 661.47 172.814 659.362 171.698C657.75 170.954 656.2 170.272 654.712 169.652C653.348 168.908 652.046 168.288 650.806 167.792C649.566 167.42 648.45 167.854 647.458 169.094C646.59 170.334 645.908 172.07 645.412 174.302H641.506C641.754 170.334 641.94 165.498 642.064 159.794C642.188 154.09 642.25 146.526 642.25 137.102H646.156C646.9 143.798 648.264 149.75 650.248 154.958C652.232 160.042 654.898 164.072 658.246 167.048C661.718 169.9 666.058 171.326 671.266 171.326C673.374 171.326 675.42 170.892 677.404 170.024C679.388 169.156 681 167.73 682.24 165.746C683.604 163.762 684.286 161.22 684.286 158.12C684.286 152.664 682.488 148.138 678.892 144.542C675.42 140.946 670.956 137.04 665.5 132.824C661.532 129.6 657.75 126.438 654.154 123.338C650.682 120.114 647.83 116.642 645.598 112.922C643.366 109.078 642.25 104.738 642.25 99.902C642.25 94.322 643.738 89.61 646.714 85.766C649.69 81.922 653.596 79.07 658.432 77.21C663.392 75.226 668.662 74.234 674.242 74.234Z" fill="#FFEFCF"/>
<path d="M194.108 204.312V208.032C191.38 209.024 188.466 211.194 185.366 214.542C182.39 217.89 179.6 223.098 176.996 230.166L137.75 336.372C136.758 336.248 135.704 336.186 134.588 336.186C133.472 336.186 132.356 336.186 131.24 336.186C130.248 336.186 129.194 336.186 128.078 336.186C126.962 336.186 125.908 336.248 124.916 336.372L77.486 219.936C75.75 215.472 73.828 212.434 71.72 210.822C69.612 209.086 67.628 208.156 65.768 208.032V204.312C69.488 204.436 73.828 204.56 78.788 204.684C83.872 204.808 88.956 204.87 94.04 204.87C99.744 204.87 105.076 204.808 110.036 204.684C115.12 204.56 119.212 204.436 122.312 204.312V208.032C118.344 208.156 115.244 208.652 113.012 209.52C110.78 210.264 109.54 211.752 109.292 213.984C109.044 216.092 109.788 219.316 111.524 223.656L145.376 309.774L141.47 314.424L167.138 245.232C170.486 235.932 172.222 228.616 172.346 223.284C172.47 217.952 171.168 214.108 168.44 211.752C165.712 209.396 161.806 208.156 156.722 208.032V204.312C160.938 204.436 164.906 204.56 168.626 204.684C172.346 204.808 176.128 204.87 179.972 204.87C182.7 204.87 185.242 204.808 187.598 204.684C190.078 204.56 192.248 204.436 194.108 204.312ZM213.577 191.85C218.785 191.85 222.877 193.152 225.853 195.756C228.953 198.236 230.503 201.708 230.503 206.172C230.503 210.636 228.953 214.17 225.853 216.774C222.877 219.254 218.785 220.494 213.577 220.494C208.369 220.494 204.215 219.254 201.115 216.774C198.139 214.17 196.651 210.636 196.651 206.172C196.651 201.708 198.139 198.236 201.115 195.756C204.215 193.152 208.369 191.85 213.577 191.85ZM228.085 237.792V318.702C228.085 323.91 228.953 327.444 230.689 329.304C232.549 331.164 235.649 332.094 239.989 332.094V336C237.757 335.876 234.285 335.752 229.573 335.628C224.861 335.38 220.087 335.256 215.251 335.256C210.415 335.256 205.517 335.38 200.557 335.628C195.597 335.752 191.877 335.876 189.397 336V332.094C193.737 332.094 196.775 331.164 198.511 329.304C200.371 327.444 201.301 323.91 201.301 318.702V260.112C201.301 254.532 200.433 250.44 198.697 247.836C197.085 245.108 193.985 243.744 189.397 243.744V239.838C193.365 240.21 197.209 240.396 200.929 240.396C206.137 240.396 210.973 240.21 215.437 239.838C220.025 239.342 224.241 238.66 228.085 237.792ZM315.399 237.234C320.607 237.234 324.823 237.916 328.047 239.28C331.395 240.52 333.999 242.256 335.859 244.488C337.843 246.844 339.269 249.882 340.137 253.602C341.129 257.322 341.625 262.344 341.625 268.668V318.702C341.625 323.91 342.493 327.444 344.229 329.304C346.089 331.164 349.189 332.094 353.529 332.094V336C351.173 335.876 347.639 335.752 342.927 335.628C338.215 335.38 333.565 335.256 328.977 335.256C324.265 335.256 319.615 335.38 315.027 335.628C310.563 335.752 307.153 335.876 304.797 336V332.094C308.517 332.094 311.121 331.164 312.609 329.304C314.097 327.444 314.841 323.91 314.841 318.702V260.856C314.841 257.756 314.531 255.09 313.911 252.858C313.291 250.502 312.175 248.704 310.563 247.464C308.951 246.1 306.533 245.418 303.309 245.418C299.961 245.418 296.861 246.348 294.009 248.208C291.281 250.068 289.049 252.672 287.313 256.02C285.701 259.244 284.895 262.902 284.895 266.994V318.702C284.895 323.91 285.639 327.444 287.127 329.304C288.739 331.164 291.343 332.094 294.939 332.094V336C292.707 335.876 289.421 335.752 285.081 335.628C280.865 335.38 276.463 335.256 271.875 335.256C267.163 335.256 262.327 335.38 257.367 335.628C252.407 335.752 248.687 335.876 246.207 336V332.094C250.547 332.094 253.585 331.164 255.321 329.304C257.181 327.444 258.111 323.91 258.111 318.702V260.112C258.111 254.532 257.243 250.44 255.507 247.836C253.895 245.108 250.795 243.744 246.207 243.744V239.838C250.175 240.21 254.019 240.396 257.739 240.396C262.947 240.396 267.783 240.21 272.247 239.838C276.835 239.342 281.051 238.66 284.895 237.792V254.532C287.995 248.208 292.211 243.744 297.543 241.14C302.875 238.536 308.827 237.234 315.399 237.234ZM406.587 237.234C417.499 237.234 426.055 240.458 432.255 246.906C438.455 253.354 441.555 263.894 441.555 278.526H380.361L379.989 274.992H418.119C418.243 268.916 417.871 263.336 417.003 258.252C416.135 253.044 414.771 248.89 412.911 245.79C411.051 242.69 408.571 241.14 405.471 241.14C401.131 241.14 397.411 243.868 394.311 249.324C391.335 254.78 389.537 263.832 388.917 276.48L389.475 277.596C389.351 279.084 389.227 280.634 389.103 282.246C389.103 283.858 389.103 285.532 389.103 287.268C389.103 295.824 390.281 302.768 392.637 308.1C395.117 313.432 398.217 317.338 401.937 319.818C405.657 322.174 409.439 323.352 413.283 323.352C415.887 323.352 418.553 322.98 421.281 322.236C424.133 321.368 426.985 319.88 429.837 317.772C432.689 315.54 435.355 312.44 437.835 308.472L441.183 309.588C439.695 314.3 437.339 318.888 434.115 323.352C430.891 327.816 426.799 331.474 421.839 334.326C416.879 337.178 410.927 338.604 403.983 338.604C395.551 338.604 388.111 336.806 381.663 333.21C375.215 329.614 370.131 324.158 366.411 316.842C362.815 309.526 361.017 300.226 361.017 288.942C361.017 277.41 362.939 267.8 366.783 260.112C370.751 252.424 376.145 246.72 382.965 243C389.909 239.156 397.783 237.234 406.587 237.234ZM539.24 239.838V243.558C536.884 244.178 534.652 245.666 532.544 248.022C530.436 250.254 528.39 254.098 526.406 259.554L500.18 333.21L493.298 346.23L452.75 254.16C450.642 249.324 448.534 246.41 446.426 245.418C444.442 244.302 442.706 243.744 441.218 243.744V239.838C445.31 240.21 449.526 240.52 453.866 240.768C458.33 240.892 462.608 240.954 466.7 240.954C471.784 240.954 476.434 240.83 480.65 240.582C484.866 240.334 488.834 240.086 492.554 239.838V243.744C490.074 243.744 487.718 243.93 485.486 244.302C483.378 244.55 481.89 245.418 481.022 246.906C480.278 248.27 480.65 250.688 482.138 254.16L505.574 310.704L503.9 311.82L517.664 273.318C520.02 266.622 521.012 261.166 520.64 256.95C520.268 252.61 518.904 249.386 516.548 247.278C514.192 245.046 510.968 243.806 506.876 243.558V239.838C508.86 239.962 510.906 240.086 513.014 240.21C515.122 240.21 517.23 240.272 519.338 240.396C521.446 240.396 523.306 240.396 524.918 240.396C527.398 240.396 530.002 240.334 532.73 240.21C535.458 240.086 537.628 239.962 539.24 239.838ZM500.18 333.21L493.112 353.112C491.872 356.212 490.57 358.816 489.206 360.924C487.966 363.156 486.54 364.954 484.928 366.318C483.192 367.806 480.96 368.922 478.232 369.666C475.504 370.534 472.342 370.968 468.746 370.968C465.77 370.968 462.67 370.472 459.446 369.48C456.346 368.488 453.742 366.876 451.634 364.644C449.526 362.412 448.472 359.56 448.472 356.088C448.472 352.244 449.836 349.144 452.564 346.788C455.292 344.556 458.888 343.44 463.352 343.44C467.444 343.44 470.792 344.432 473.396 346.416C476 348.4 477.302 351.314 477.302 355.158C477.302 357.638 476.496 359.994 474.884 362.226C473.396 364.458 471.102 366.132 468.002 367.248C468.622 367.372 469.366 367.434 470.234 367.434C471.102 367.434 471.784 367.434 472.28 367.434C476 367.434 479.286 366.256 482.138 363.9C484.99 361.544 487.346 357.824 489.206 352.74L495.716 333.582L500.18 333.21ZM566.365 337.302C560.785 337.302 556.135 336.248 552.415 334.14C548.695 332.032 545.967 329.242 544.231 325.77C542.495 322.174 541.627 318.268 541.627 314.052C541.627 308.72 542.805 304.38 545.161 301.032C547.641 297.684 550.803 294.956 554.647 292.848C558.491 290.74 562.521 289.004 566.737 287.64C571.077 286.276 575.169 284.974 579.013 283.734C582.981 282.37 586.143 280.82 588.499 279.084C590.979 277.224 592.219 274.868 592.219 272.016V257.508C592.219 254.284 591.661 251.432 590.545 248.952C589.553 246.348 587.941 244.364 585.709 243C583.601 241.636 580.811 240.954 577.339 240.954C574.859 240.954 572.379 241.326 569.899 242.07C567.419 242.69 565.373 243.806 563.761 245.418C567.233 246.658 569.899 248.58 571.759 251.184C573.743 253.664 574.735 256.516 574.735 259.74C574.735 263.956 573.247 267.304 570.271 269.784C567.419 272.264 564.009 273.504 560.041 273.504C555.577 273.504 552.167 272.14 549.811 269.412C547.579 266.56 546.463 263.15 546.463 259.182C546.463 255.586 547.331 252.61 549.067 250.254C550.927 247.898 553.469 245.666 556.693 243.558C560.165 241.574 564.319 240.024 569.155 238.908C574.115 237.792 579.447 237.234 585.151 237.234C590.855 237.234 596.001 237.854 600.589 239.094C605.177 240.21 609.021 242.318 612.121 245.418C614.973 248.27 616.833 251.804 617.701 256.02C618.569 260.112 619.003 265.32 619.003 271.644V322.236C619.003 325.336 619.313 327.506 619.933 328.746C620.553 329.862 621.607 330.42 623.095 330.42C624.211 330.42 625.265 330.11 626.257 329.49C627.373 328.87 628.551 328.126 629.791 327.258L631.651 330.42C629.047 332.652 626.009 334.388 622.537 335.628C619.189 336.744 615.407 337.302 611.191 337.302C606.603 337.302 602.945 336.682 600.217 335.442C597.489 334.078 595.505 332.28 594.265 330.048C593.149 327.816 592.591 325.212 592.591 322.236C589.615 326.948 586.019 330.668 581.803 333.396C577.587 336 572.441 337.302 566.365 337.302ZM579.571 325.398C582.051 325.398 584.283 324.84 586.267 323.724C588.375 322.484 590.359 320.5 592.219 317.772V279.642C591.103 281.502 589.553 283.176 587.569 284.664C585.585 286.152 583.477 287.702 581.245 289.314C579.013 290.802 576.843 292.476 574.735 294.336C572.751 296.196 571.139 298.49 569.899 301.218C568.659 303.946 568.039 307.232 568.039 311.076C568.039 315.912 569.093 319.508 571.201 321.864C573.309 324.22 576.099 325.398 579.571 325.398ZM699.091 237.234C703.059 237.234 706.283 238.102 708.763 239.838C711.243 241.45 713.041 243.558 714.157 246.162C715.397 248.766 716.017 251.494 716.017 254.346C716.017 258.934 714.653 262.716 711.925 265.692C709.321 268.544 705.849 269.97 701.509 269.97C697.169 269.97 693.759 268.916 691.279 266.808C688.923 264.576 687.745 261.662 687.745 258.066C687.745 254.594 688.489 251.742 689.977 249.51C691.589 247.154 693.573 245.17 695.929 243.558C694.193 243.062 692.457 243.124 690.721 243.744C688.365 244.116 686.133 245.108 684.025 246.72C681.917 248.208 680.119 250.13 678.631 252.486C677.143 254.718 675.965 257.198 675.097 259.926C674.229 262.53 673.795 265.072 673.795 267.552V316.842C673.795 322.794 675.221 326.824 678.073 328.932C681.049 331.04 685.451 332.094 691.279 332.094V336C688.427 335.876 684.273 335.752 678.817 335.628C673.361 335.38 667.657 335.256 661.705 335.256C656.745 335.256 651.723 335.38 646.639 335.628C641.555 335.752 637.711 335.876 635.107 336V332.094C639.447 332.094 642.485 331.164 644.221 329.304C646.081 327.444 647.011 323.91 647.011 318.702V260.112C647.011 254.532 646.143 250.44 644.407 247.836C642.795 245.108 639.695 243.744 635.107 243.744V239.838C639.075 240.21 642.919 240.396 646.639 240.396C651.847 240.396 656.683 240.21 661.147 239.838C665.735 239.342 669.951 238.66 673.795 237.792V255.09C675.283 251.742 677.267 248.704 679.747 245.976C682.227 243.248 685.079 241.14 688.303 239.652C691.527 238.04 695.123 237.234 699.091 237.234ZM809.04 190.362V315.54C809.04 321.12 809.908 325.274 811.644 328.002C813.38 330.606 816.48 331.908 820.944 331.908V335.814C817.1 335.442 813.256 335.256 809.412 335.256C804.204 335.256 799.306 335.442 794.718 335.814C790.254 336.186 786.1 336.868 782.256 337.86V212.682C782.256 207.102 781.388 203.01 779.652 200.406C778.04 197.678 774.94 196.314 770.352 196.314V192.408C774.32 192.78 778.164 192.966 781.884 192.966C786.968 192.966 791.804 192.78 796.392 192.408C800.98 191.912 805.196 191.23 809.04 190.362ZM761.61 237.234C767.066 237.234 771.84 238.164 775.932 240.024C780.148 241.76 783.434 244.736 785.79 248.952L783.558 250.998C781.946 248.022 779.776 245.914 777.048 244.674C774.444 243.31 771.654 242.628 768.678 242.628C762.354 242.628 757.332 246.348 753.612 253.788C749.892 261.104 748.094 272.45 748.218 287.826C748.218 298.366 748.9 306.798 750.264 313.122C751.752 319.322 753.798 323.786 756.402 326.514C759.13 329.242 762.23 330.606 765.702 330.606C769.918 330.606 773.7 328.932 777.048 325.584C780.396 322.236 782.194 317.71 782.442 312.006L783.372 318.516C781.512 325.088 778.474 330.11 774.258 333.582C770.166 336.93 764.772 338.604 758.076 338.604C750.76 338.604 744.188 336.806 738.36 333.21C732.656 329.614 728.192 324.096 724.968 316.656C721.744 309.092 720.132 299.358 720.132 287.454C720.132 276.17 721.93 266.87 725.526 259.554C729.122 252.114 734.02 246.534 740.22 242.814C746.544 239.094 753.674 237.234 761.61 237.234Z" fill="#FFEFCF"/>
<path d="M138.148 379V378.245C138.806 378.219 139.297 378.168 139.619 378.09C139.942 378.013 140.155 377.858 140.258 377.626C140.361 377.394 140.413 377.045 140.413 376.581V367.716C140.413 367.252 140.361 366.91 140.258 366.69C140.155 366.458 139.942 366.297 139.619 366.206C139.297 366.116 138.806 366.065 138.148 366.052V365.297C138.832 365.31 139.722 365.323 140.819 365.335C141.929 365.348 143.226 365.355 144.709 365.355C145.174 365.355 145.638 365.355 146.103 365.355C146.58 365.355 147.032 365.348 147.458 365.335C147.897 365.323 148.297 365.31 148.658 365.297C148.658 365.929 148.684 366.561 148.735 367.194C148.8 367.813 148.877 368.432 148.968 369.052H148.193C148.013 368.29 147.8 367.697 147.555 367.271C147.322 366.832 147.019 366.529 146.645 366.361C146.271 366.194 145.787 366.11 145.193 366.11H142.368V376.619C142.368 377.058 142.406 377.394 142.484 377.626C142.561 377.858 142.716 378.013 142.948 378.09C143.193 378.155 143.555 378.187 144.032 378.187H144.845C145.671 378.187 146.335 378.084 146.838 377.877C147.342 377.658 147.755 377.265 148.077 376.697C148.413 376.129 148.729 375.323 149.026 374.277H149.8C149.697 375.052 149.619 375.832 149.568 376.619C149.516 377.394 149.49 378.187 149.49 379C148.884 378.974 148.187 378.961 147.4 378.961C146.626 378.948 145.722 378.942 144.69 378.942C143.219 378.942 141.929 378.948 140.819 378.961C139.722 378.961 138.832 378.974 138.148 379ZM141.748 372.477V371.742H145.155V372.477H141.748ZM145.987 374.955C145.922 374.323 145.819 373.832 145.677 373.484C145.535 373.123 145.322 372.865 145.038 372.71C144.755 372.555 144.374 372.477 143.897 372.477V371.742C144.555 371.742 145.032 371.555 145.329 371.181C145.638 370.794 145.838 370.155 145.929 369.265H146.606C146.555 370.026 146.529 370.606 146.529 371.006C146.542 371.406 146.548 371.774 146.548 372.11C146.548 372.394 146.548 372.671 146.548 372.942C146.561 373.2 146.574 373.49 146.587 373.813C146.613 374.123 146.638 374.503 146.664 374.955H145.987ZM178.598 379.271C177.863 379.271 177.23 379.194 176.701 379.039C176.185 378.884 175.759 378.729 175.424 378.574C175.088 378.419 174.824 378.342 174.63 378.342C174.463 378.342 174.327 378.413 174.224 378.555C174.134 378.697 174.063 378.903 174.011 379.174H173.237C173.263 378.89 173.282 378.542 173.295 378.129C173.308 377.716 173.314 377.187 173.314 376.542C173.327 375.897 173.334 375.09 173.334 374.123H174.108C174.211 375.477 174.637 376.548 175.385 377.335C176.134 378.11 177.108 378.497 178.308 378.497C179.172 378.497 179.863 378.277 180.379 377.839C180.908 377.387 181.172 376.781 181.172 376.019C181.172 375.542 181.056 375.123 180.824 374.761C180.605 374.387 180.243 374.045 179.74 373.735C179.25 373.426 178.592 373.123 177.766 372.826C176.772 372.465 175.959 372.077 175.327 371.665C174.708 371.252 174.25 370.794 173.953 370.29C173.669 369.774 173.527 369.194 173.527 368.548C173.527 367.826 173.688 367.2 174.011 366.671C174.347 366.142 174.818 365.735 175.424 365.452C176.03 365.168 176.74 365.026 177.553 365.026C178.224 365.026 178.785 365.103 179.237 365.258C179.688 365.4 180.063 365.548 180.359 365.703C180.656 365.858 180.908 365.935 181.114 365.935C181.269 365.935 181.398 365.871 181.501 365.742C181.605 365.6 181.682 365.394 181.734 365.123H182.508C182.482 365.406 182.463 365.729 182.45 366.09C182.437 366.439 182.424 366.877 182.411 367.406C182.411 367.935 182.411 368.613 182.411 369.439H181.618C181.514 368.329 181.121 367.445 180.437 366.787C179.753 366.116 178.895 365.781 177.863 365.781C177.05 365.781 176.418 365.981 175.966 366.381C175.527 366.768 175.308 367.303 175.308 367.987C175.308 368.439 175.424 368.845 175.656 369.206C175.888 369.555 176.269 369.89 176.798 370.213C177.34 370.523 178.063 370.845 178.966 371.181C180.437 371.723 181.495 372.329 182.14 373C182.785 373.671 183.108 374.497 183.108 375.477C183.108 376.639 182.701 377.561 181.888 378.245C181.076 378.929 179.979 379.271 178.598 379.271ZM207.687 379V378.245C208.461 378.219 209.036 378.161 209.41 378.071C209.797 377.981 210.055 377.806 210.184 377.548C210.313 377.29 210.377 376.91 210.377 376.406V366.11H209.313C208.745 366.11 208.274 366.219 207.9 366.439C207.539 366.645 207.236 367.013 206.99 367.542C206.745 368.071 206.526 368.813 206.332 369.768H205.558C205.687 368.968 205.777 368.206 205.829 367.484C205.894 366.748 205.926 366.019 205.926 365.297C206.455 365.31 207.023 365.323 207.629 365.335C208.248 365.348 208.881 365.355 209.526 365.355C210.171 365.355 210.784 365.355 211.365 365.355C211.881 365.355 212.455 365.355 213.087 365.355C213.732 365.355 214.371 365.348 215.003 365.335C215.648 365.323 216.236 365.31 216.765 365.297C216.777 366.006 216.81 366.735 216.861 367.484C216.926 368.219 217.023 368.981 217.152 369.768H216.358C216.216 369.045 216.055 368.452 215.874 367.987C215.706 367.51 215.506 367.135 215.274 366.865C215.055 366.581 214.79 366.387 214.481 366.284C214.184 366.168 213.823 366.11 213.397 366.11H212.332V376.406C212.332 376.91 212.397 377.29 212.526 377.548C212.655 377.806 212.906 377.981 213.281 378.071C213.668 378.161 214.248 378.219 215.023 378.245V379C214.623 378.974 214.094 378.961 213.436 378.961C212.79 378.948 212.1 378.942 211.365 378.942C210.577 378.942 209.861 378.948 209.216 378.961C208.571 378.961 208.061 378.974 207.687 379ZM240.037 379.271C239.598 379.271 239.237 379.135 238.953 378.865C238.669 378.594 238.527 378.245 238.527 377.819C238.527 377.406 238.669 377.065 238.953 376.794C239.237 376.523 239.598 376.387 240.037 376.387C240.475 376.387 240.837 376.523 241.121 376.794C241.404 377.065 241.546 377.406 241.546 377.819C241.546 378.245 241.404 378.594 241.121 378.865C240.837 379.135 240.475 379.271 240.037 379.271ZM298.846 379.097C298.755 379.058 298.542 379.032 298.207 379.019C297.871 379.006 297.51 379 297.123 379H290.407V378.284C291.22 377.677 291.955 377.097 292.613 376.542C293.271 375.987 293.839 375.445 294.317 374.916C294.794 374.374 295.162 373.839 295.42 373.31C295.678 372.768 295.807 372.206 295.807 371.626C295.807 370.968 295.626 370.477 295.265 370.155C294.917 369.819 294.4 369.652 293.717 369.652C293.175 369.652 292.749 369.729 292.439 369.884C292.13 370.039 291.975 370.239 291.975 370.484C291.975 370.639 292.033 370.794 292.149 370.948C292.265 371.103 292.375 371.271 292.478 371.452C292.581 371.632 292.633 371.839 292.633 372.071C292.633 372.342 292.536 372.561 292.342 372.729C292.162 372.884 291.917 372.961 291.607 372.961C291.233 372.961 290.93 372.839 290.697 372.594C290.465 372.348 290.349 372.013 290.349 371.587C290.349 371.045 290.53 370.561 290.891 370.135C291.252 369.71 291.749 369.374 292.381 369.129C293.013 368.884 293.717 368.761 294.491 368.761C295.497 368.761 296.304 368.987 296.91 369.439C297.517 369.877 297.82 370.516 297.82 371.355C297.82 371.832 297.697 372.297 297.452 372.748C297.22 373.187 296.871 373.639 296.407 374.103C295.955 374.568 295.407 375.065 294.762 375.594C294.117 376.11 293.394 376.677 292.594 377.297V377.413H296.542C297.097 377.413 297.471 377.316 297.665 377.123C297.871 376.929 298 376.574 298.052 376.058H298.768C298.768 376.858 298.775 377.477 298.788 377.916C298.8 378.355 298.82 378.748 298.846 379.097ZM326.714 379.271C325.72 379.271 324.849 379.058 324.101 378.632C323.352 378.194 322.765 377.594 322.339 376.832C321.927 376.058 321.72 375.168 321.72 374.161C321.72 373.103 321.939 372.168 322.378 371.355C322.83 370.542 323.443 369.91 324.217 369.458C325.004 368.994 325.914 368.761 326.946 368.761C327.939 368.761 328.81 368.974 329.559 369.4C330.307 369.826 330.888 370.426 331.301 371.2C331.727 371.961 331.939 372.845 331.939 373.852C331.939 374.91 331.714 375.845 331.262 376.658C330.823 377.471 330.21 378.11 329.423 378.574C328.636 379.039 327.733 379.271 326.714 379.271ZM326.791 378.516C327.759 378.516 328.52 378.103 329.075 377.277C329.643 376.452 329.927 375.335 329.927 373.929C329.927 372.561 329.649 371.484 329.094 370.697C328.552 369.897 327.804 369.497 326.849 369.497C325.881 369.497 325.12 369.91 324.565 370.735C324.01 371.561 323.733 372.677 323.733 374.084C323.733 375.465 324.004 376.548 324.546 377.335C325.101 378.123 325.849 378.516 326.791 378.516ZM363.516 379.097C363.426 379.058 363.213 379.032 362.878 379.019C362.542 379.006 362.181 379 361.794 379H355.078V378.284C355.89 377.677 356.626 377.097 357.284 376.542C357.942 375.987 358.51 375.445 358.987 374.916C359.465 374.374 359.832 373.839 360.09 373.31C360.349 372.768 360.478 372.206 360.478 371.626C360.478 370.968 360.297 370.477 359.936 370.155C359.587 369.819 359.071 369.652 358.387 369.652C357.845 369.652 357.419 369.729 357.11 369.884C356.8 370.039 356.645 370.239 356.645 370.484C356.645 370.639 356.703 370.794 356.819 370.948C356.936 371.103 357.045 371.271 357.149 371.452C357.252 371.632 357.303 371.839 357.303 372.071C357.303 372.342 357.207 372.561 357.013 372.729C356.832 372.884 356.587 372.961 356.278 372.961C355.903 372.961 355.6 372.839 355.368 372.594C355.136 372.348 355.019 372.013 355.019 371.587C355.019 371.045 355.2 370.561 355.561 370.135C355.923 369.71 356.419 369.374 357.052 369.129C357.684 368.884 358.387 368.761 359.161 368.761C360.168 368.761 360.974 368.987 361.581 369.439C362.187 369.877 362.49 370.516 362.49 371.355C362.49 371.832 362.368 372.297 362.123 372.748C361.89 373.187 361.542 373.639 361.078 374.103C360.626 374.568 360.078 375.065 359.432 375.594C358.787 376.11 358.065 376.677 357.265 377.297V377.413H361.213C361.768 377.413 362.142 377.316 362.336 377.123C362.542 376.929 362.671 376.574 362.723 376.058H363.439C363.439 376.858 363.445 377.477 363.458 377.916C363.471 378.355 363.49 378.748 363.516 379.097ZM391.384 379.271C390.391 379.271 389.52 379.058 388.771 378.632C388.023 378.194 387.436 377.594 387.01 376.832C386.597 376.058 386.391 375.168 386.391 374.161C386.391 373.103 386.61 372.168 387.049 371.355C387.5 370.542 388.113 369.91 388.887 369.458C389.675 368.994 390.584 368.761 391.616 368.761C392.61 368.761 393.481 368.974 394.229 369.4C394.978 369.826 395.558 370.426 395.971 371.2C396.397 371.961 396.61 372.845 396.61 373.852C396.61 374.91 396.384 375.845 395.933 376.658C395.494 377.471 394.881 378.11 394.094 378.574C393.307 379.039 392.404 379.271 391.384 379.271ZM391.462 378.516C392.429 378.516 393.191 378.103 393.746 377.277C394.313 376.452 394.597 375.335 394.597 373.929C394.597 372.561 394.32 371.484 393.765 370.697C393.223 369.897 392.475 369.497 391.52 369.497C390.552 369.497 389.791 369.91 389.236 370.735C388.681 371.561 388.404 372.677 388.404 374.084C388.404 375.465 388.675 376.548 389.216 377.335C389.771 378.123 390.52 378.516 391.462 378.516Z" fill="white"/>
</svg>
