<svg width="358" height="197" viewBox="0 0 358 197" fill="none" xmlns="http://www.w3.org/2000/svg">
<path d="M52.528 17.192V18.712C51.4133 19.1173 50.2227 20.004 48.956 21.372C47.74 22.74 46.6 24.868 45.536 27.756L29.5 71.152C29.0947 71.1013 28.664 71.076 28.208 71.076C27.752 71.076 27.296 71.076 26.84 71.076C26.4347 71.076 26.004 71.076 25.548 71.076C25.092 71.076 24.6613 71.1013 24.256 71.152L4.876 23.576C4.16667 21.752 3.38133 20.5107 2.52 19.852C1.65867 19.1427 0.848 18.7627 0.088 18.712V17.192C1.608 17.2427 3.38133 17.2933 5.408 17.344C7.48533 17.3947 9.56267 17.42 11.64 17.42C13.9707 17.42 16.1493 17.3947 18.176 17.344C20.2533 17.2933 21.9253 17.2427 23.192 17.192V18.712C21.5707 18.7627 20.304 18.9653 19.392 19.32C18.48 19.624 17.9733 20.232 17.872 21.144C17.7707 22.0053 18.0747 23.3227 18.784 25.096L32.616 60.284L31.02 62.184L41.508 33.912C42.876 30.112 43.5853 27.1227 43.636 24.944C43.6867 22.7653 43.1547 21.1947 42.04 20.232C40.9253 19.2693 39.3293 18.7627 37.252 18.712V17.192C38.9747 17.2427 40.596 17.2933 42.116 17.344C43.636 17.3947 45.1813 17.42 46.752 17.42C47.8667 17.42 48.9053 17.3947 49.868 17.344C50.8813 17.2933 51.768 17.2427 52.528 17.192ZM60.4831 12.1C62.6111 12.1 64.2831 12.632 65.4991 13.696C66.7657 14.7093 67.3991 16.128 67.3991 17.952C67.3991 19.776 66.7657 21.22 65.4991 22.284C64.2831 23.2973 62.6111 23.804 60.4831 23.804C58.3551 23.804 56.6577 23.2973 55.3911 22.284C54.1751 21.22 53.5671 19.776 53.5671 17.952C53.5671 16.128 54.1751 14.7093 55.3911 13.696C56.6577 12.632 58.3551 12.1 60.4831 12.1ZM66.4111 30.872V63.932C66.4111 66.06 66.7657 67.504 67.4751 68.264C68.2351 69.024 69.5017 69.404 71.2751 69.404V71C70.3631 70.9493 68.9444 70.8987 67.0191 70.848C65.0937 70.7467 63.1431 70.696 61.1671 70.696C59.1911 70.696 57.1897 70.7467 55.1631 70.848C53.1364 70.8987 51.6164 70.9493 50.6031 71V69.404C52.3764 69.404 53.6177 69.024 54.3271 68.264C55.0871 67.504 55.4671 66.06 55.4671 63.932V39.992C55.4671 37.712 55.1124 36.04 54.4031 34.976C53.7444 33.8613 52.4777 33.304 50.6031 33.304V31.708C52.2244 31.86 53.7951 31.936 55.3151 31.936C57.4431 31.936 59.4191 31.86 61.2431 31.708C63.1177 31.5053 64.8404 31.2267 66.4111 30.872ZM89.2437 19.244V31.708H98.2117V33.228H89.2437V63.932C89.2437 65.452 89.5224 66.5413 90.0797 67.2C90.6371 67.808 91.4731 68.112 92.5877 68.112C93.4997 68.112 94.4117 67.7827 95.3237 67.124C96.2357 66.4147 97.0464 65.224 97.7557 63.552L99.0477 64.236C98.2371 66.516 96.9957 68.3907 95.3237 69.86C93.7024 71.3293 91.4731 72.064 88.6357 72.064C86.9637 72.064 85.4944 71.836 84.2277 71.38C82.9611 70.9747 81.8971 70.3413 81.0357 69.48C79.9211 68.3653 79.1864 66.9973 78.8317 65.376C78.4771 63.704 78.2997 61.5507 78.2997 58.916V33.228H71.9157V31.708H78.2997V21.676C80.4277 21.676 82.3784 21.4987 84.1517 21.144C85.9757 20.7387 87.6731 20.1053 89.2437 19.244ZM119.086 30.644C122.784 30.644 126.027 31.328 128.814 32.696C131.6 34.064 133.779 36.268 135.35 39.308C136.92 42.348 137.706 46.376 137.706 51.392C137.706 56.408 136.92 60.436 135.35 63.476C133.779 66.4653 131.6 68.644 128.814 70.012C126.027 71.38 122.784 72.064 119.086 72.064C115.488 72.064 112.271 71.38 109.434 70.012C106.647 68.644 104.443 66.4653 102.822 63.476C101.251 60.436 100.466 56.408 100.466 51.392C100.466 46.376 101.251 42.348 102.822 39.308C104.443 36.268 106.647 34.064 109.434 32.696C112.271 31.328 115.488 30.644 119.086 30.644ZM119.086 32.164C117.059 32.164 115.362 33.684 113.994 36.724C112.626 39.7133 111.942 44.6027 111.942 51.392C111.942 58.1813 112.626 63.0707 113.994 66.06C115.362 69.0493 117.059 70.544 119.086 70.544C121.163 70.544 122.86 69.0493 124.178 66.06C125.546 63.0707 126.23 58.1813 126.23 51.392C126.23 44.6027 125.546 39.7133 124.178 36.724C122.86 33.684 121.163 32.164 119.086 32.164ZM167.834 30.644C169.456 30.644 170.773 30.9987 171.786 31.708C172.8 32.3667 173.534 33.228 173.99 34.292C174.497 35.356 174.75 36.4707 174.75 37.636C174.75 39.5107 174.193 41.056 173.078 42.272C172.014 43.4373 170.596 44.02 168.822 44.02C167.049 44.02 165.656 43.5893 164.642 42.728C163.68 41.816 163.198 40.6253 163.198 39.156C163.198 37.7373 163.502 36.572 164.11 35.66C164.769 34.6973 165.58 33.8867 166.542 33.228C165.833 33.0253 165.124 33.0507 164.414 33.304C163.452 33.456 162.54 33.8613 161.678 34.52C160.817 35.128 160.082 35.9133 159.474 36.876C158.866 37.788 158.385 38.8013 158.03 39.916C157.676 40.98 157.498 42.0187 157.498 43.032V63.172C157.498 65.604 158.081 67.2507 159.246 68.112C160.462 68.9733 162.261 69.404 164.642 69.404V71C163.477 70.9493 161.78 70.8987 159.55 70.848C157.321 70.7467 154.99 70.696 152.558 70.696C150.532 70.696 148.48 70.7467 146.402 70.848C144.325 70.8987 142.754 70.9493 141.69 71V69.404C143.464 69.404 144.705 69.024 145.414 68.264C146.174 67.504 146.554 66.06 146.554 63.932V39.992C146.554 37.712 146.2 36.04 145.49 34.976C144.832 33.8613 143.565 33.304 141.69 33.304V31.708C143.312 31.86 144.882 31.936 146.402 31.936C148.53 31.936 150.506 31.86 152.33 31.708C154.205 31.5053 155.928 31.2267 157.498 30.872V37.94C158.106 36.572 158.917 35.3307 159.93 34.216C160.944 33.1013 162.109 32.24 163.426 31.632C164.744 30.9733 166.213 30.644 167.834 30.644ZM186.287 12.1C188.415 12.1 190.087 12.632 191.303 13.696C192.569 14.7093 193.203 16.128 193.203 17.952C193.203 19.776 192.569 21.22 191.303 22.284C190.087 23.2973 188.415 23.804 186.287 23.804C184.159 23.804 182.461 23.2973 181.195 22.284C179.979 21.22 179.371 19.776 179.371 17.952C179.371 16.128 179.979 14.7093 181.195 13.696C182.461 12.632 184.159 12.1 186.287 12.1ZM192.215 30.872V63.932C192.215 66.06 192.569 67.504 193.279 68.264C194.039 69.024 195.305 69.404 197.079 69.404V71C196.167 70.9493 194.748 70.8987 192.823 70.848C190.897 70.7467 188.947 70.696 186.971 70.696C184.995 70.696 182.993 70.7467 180.967 70.848C178.94 70.8987 177.42 70.9493 176.407 71V69.404C178.18 69.404 179.421 69.024 180.131 68.264C180.891 67.504 181.271 66.06 181.271 63.932V39.992C181.271 37.712 180.916 36.04 180.207 34.976C179.548 33.8613 178.281 33.304 176.407 33.304V31.708C178.028 31.86 179.599 31.936 181.119 31.936C183.247 31.936 185.223 31.86 187.047 31.708C188.921 31.5053 190.644 31.2267 192.215 30.872ZM219.227 30.644C222.926 30.644 226.169 31.328 228.955 32.696C231.742 34.064 233.921 36.268 235.491 39.308C237.062 42.348 237.847 46.376 237.847 51.392C237.847 56.408 237.062 60.436 235.491 63.476C233.921 66.4653 231.742 68.644 228.955 70.012C226.169 71.38 222.926 72.064 219.227 72.064C215.63 72.064 212.413 71.38 209.575 70.012C206.789 68.644 204.585 66.4653 202.963 63.476C201.393 60.436 200.607 56.408 200.607 51.392C200.607 46.376 201.393 42.348 202.963 39.308C204.585 36.268 206.789 34.064 209.575 32.696C212.413 31.328 215.63 30.644 219.227 30.644ZM219.227 32.164C217.201 32.164 215.503 33.684 214.135 36.724C212.767 39.7133 212.083 44.6027 212.083 51.392C212.083 58.1813 212.767 63.0707 214.135 66.06C215.503 69.0493 217.201 70.544 219.227 70.544C221.305 70.544 223.002 69.0493 224.319 66.06C225.687 63.0707 226.371 58.1813 226.371 51.392C226.371 44.6027 225.687 39.7133 224.319 36.724C223.002 33.684 221.305 32.164 219.227 32.164ZM247.345 16.128C248.612 16.128 249.701 16.356 250.613 16.812C251.525 17.268 252.234 17.9267 252.741 18.788C253.298 19.4973 253.704 20.4347 253.957 21.6C254.261 22.7653 254.413 23.9307 254.413 25.096C254.413 27.6293 253.754 29.9853 252.437 32.164C251.17 34.292 249.169 35.9893 246.433 37.256L245.749 35.888C247.168 35.28 248.434 34.3427 249.549 33.076C250.664 31.8093 251.322 30.5173 251.525 29.2C251.778 28.0853 251.778 27.0213 251.525 26.008C250.41 27.224 248.941 27.832 247.117 27.832C245.344 27.832 243.9 27.3253 242.785 26.312C241.67 25.248 241.113 23.804 241.113 21.98C241.113 20.2067 241.696 18.788 242.861 17.724C244.077 16.66 245.572 16.128 247.345 16.128ZM272.819 30.644C274.947 30.644 276.797 30.9227 278.367 31.48C279.989 31.9867 281.154 32.4933 281.863 33C283.586 34.1653 284.65 33.4053 285.055 30.72H286.651C286.55 32.1387 286.474 33.8867 286.423 35.964C286.373 37.9907 286.347 40.7013 286.347 44.096H284.751C284.498 42.2213 284.017 40.372 283.307 38.548C282.598 36.724 281.559 35.2293 280.191 34.064C278.874 32.8987 277.151 32.316 275.023 32.316C273.554 32.316 272.313 32.7467 271.299 33.608C270.286 34.4187 269.779 35.6093 269.779 37.18C269.779 38.7 270.235 40.0427 271.147 41.208C272.059 42.3227 273.225 43.412 274.643 44.476C276.113 45.4893 277.633 46.5787 279.203 47.744C280.875 49.0107 282.395 50.2773 283.763 51.544C285.131 52.76 286.221 54.1027 287.031 55.572C287.842 57.0413 288.247 58.7893 288.247 60.816C288.247 63.096 287.589 65.0973 286.271 66.82C284.954 68.492 283.206 69.784 281.027 70.696C278.899 71.608 276.518 72.064 273.883 72.064C272.363 72.064 270.995 71.912 269.779 71.608C268.614 71.304 267.601 70.924 266.739 70.468C266.081 70.164 265.447 69.8853 264.839 69.632C264.282 69.328 263.75 69.0747 263.243 68.872C262.737 68.72 262.281 68.8973 261.875 69.404C261.521 69.9107 261.242 70.62 261.039 71.532H259.443C259.545 69.9107 259.621 67.9347 259.671 65.604C259.722 63.2733 259.747 60.1827 259.747 56.332H261.343C261.647 59.068 262.205 61.5 263.015 63.628C263.826 65.7053 264.915 67.352 266.283 68.568C267.702 69.7333 269.475 70.316 271.603 70.316C272.465 70.316 273.301 70.1387 274.111 69.784C274.922 69.4293 275.581 68.8467 276.087 68.036C276.645 67.2253 276.923 66.1867 276.923 64.92C276.923 62.6907 276.189 60.8413 274.719 59.372C273.301 57.9027 271.477 56.3067 269.247 54.584C267.626 53.2667 266.081 51.9747 264.611 50.708C263.193 49.3907 262.027 47.972 261.115 46.452C260.203 44.8813 259.747 43.108 259.747 41.132C259.747 38.852 260.355 36.9267 261.571 35.356C262.787 33.7853 264.383 32.62 266.359 31.86C268.386 31.0493 270.539 30.644 272.819 30.644Z" fill="#FFEFCF"/>
<path d="M97.528 94.192V95.712C96.4133 96.1173 95.2227 97.004 93.956 98.372C92.74 99.74 91.6 101.868 90.536 104.756L74.5 148.152C74.0947 148.101 73.664 148.076 73.208 148.076C72.752 148.076 72.296 148.076 71.84 148.076C71.4347 148.076 71.004 148.076 70.548 148.076C70.092 148.076 69.6613 148.101 69.256 148.152L49.876 100.576C49.1667 98.752 48.3813 97.5107 47.52 96.852C46.6587 96.1427 45.848 95.7627 45.088 95.712V94.192C46.608 94.2427 48.3813 94.2933 50.408 94.344C52.4853 94.3947 54.5627 94.42 56.64 94.42C58.9707 94.42 61.1493 94.3947 63.176 94.344C65.2533 94.2933 66.9253 94.2427 68.192 94.192V95.712C66.5707 95.7627 65.304 95.9653 64.392 96.32C63.48 96.624 62.9733 97.232 62.872 98.144C62.7707 99.0053 63.0747 100.323 63.784 102.096L77.616 137.284L76.02 139.184L86.508 110.912C87.876 107.112 88.5853 104.123 88.636 101.944C88.6867 99.7653 88.1547 98.1947 87.04 97.232C85.9253 96.2693 84.3293 95.7627 82.252 95.712V94.192C83.9747 94.2427 85.596 94.2933 87.116 94.344C88.636 94.3947 90.1813 94.42 91.752 94.42C92.8667 94.42 93.9053 94.3947 94.868 94.344C95.8813 94.2933 96.768 94.2427 97.528 94.192ZM105.483 89.1C107.611 89.1 109.283 89.632 110.499 90.696C111.766 91.7093 112.399 93.128 112.399 94.952C112.399 96.776 111.766 98.22 110.499 99.284C109.283 100.297 107.611 100.804 105.483 100.804C103.355 100.804 101.658 100.297 100.391 99.284C99.1751 98.22 98.5671 96.776 98.5671 94.952C98.5671 93.128 99.1751 91.7093 100.391 90.696C101.658 89.632 103.355 89.1 105.483 89.1ZM111.411 107.872V140.932C111.411 143.06 111.766 144.504 112.475 145.264C113.235 146.024 114.502 146.404 116.275 146.404V148C115.363 147.949 113.944 147.899 112.019 147.848C110.094 147.747 108.143 147.696 106.167 147.696C104.191 147.696 102.19 147.747 100.163 147.848C98.1364 147.899 96.6164 147.949 95.6031 148V146.404C97.3764 146.404 98.6177 146.024 99.3271 145.264C100.087 144.504 100.467 143.06 100.467 140.932V116.992C100.467 114.712 100.112 113.04 99.4031 111.976C98.7444 110.861 97.4777 110.304 95.6031 110.304V108.708C97.2244 108.86 98.7951 108.936 100.315 108.936C102.443 108.936 104.419 108.86 106.243 108.708C108.118 108.505 109.84 108.227 111.411 107.872ZM147.088 107.644C149.216 107.644 150.938 107.923 152.256 108.48C153.624 108.987 154.688 109.696 155.448 110.608C156.258 111.571 156.841 112.812 157.196 114.332C157.601 115.852 157.804 117.904 157.804 120.488V140.932C157.804 143.06 158.158 144.504 158.868 145.264C159.628 146.024 160.894 146.404 162.668 146.404V148C161.705 147.949 160.261 147.899 158.336 147.848C156.41 147.747 154.51 147.696 152.636 147.696C150.71 147.696 148.81 147.747 146.936 147.848C145.112 147.899 143.718 147.949 142.756 148V146.404C144.276 146.404 145.34 146.024 145.948 145.264C146.556 144.504 146.86 143.06 146.86 140.932V117.296C146.86 116.029 146.733 114.94 146.48 114.028C146.226 113.065 145.77 112.331 145.112 111.824C144.453 111.267 143.465 110.988 142.148 110.988C140.78 110.988 139.513 111.368 138.348 112.128C137.233 112.888 136.321 113.952 135.612 115.32C134.953 116.637 134.624 118.132 134.624 119.804V140.932C134.624 143.06 134.928 144.504 135.536 145.264C136.194 146.024 137.258 146.404 138.728 146.404V148C137.816 147.949 136.473 147.899 134.7 147.848C132.977 147.747 131.178 147.696 129.304 147.696C127.378 147.696 125.402 147.747 123.376 147.848C121.349 147.899 119.829 147.949 118.816 148V146.404C120.589 146.404 121.83 146.024 122.54 145.264C123.3 144.504 123.68 143.06 123.68 140.932V116.992C123.68 114.712 123.325 113.04 122.616 111.976C121.957 110.861 120.69 110.304 118.816 110.304V108.708C120.437 108.86 122.008 108.936 123.528 108.936C125.656 108.936 127.632 108.86 129.456 108.708C131.33 108.505 133.053 108.227 134.624 107.872V114.712C135.89 112.128 137.613 110.304 139.792 109.24C141.97 108.176 144.402 107.644 147.088 107.644ZM184.347 107.644C188.806 107.644 192.302 108.961 194.835 111.596C197.369 114.231 198.635 118.537 198.635 124.516H173.631L173.479 123.072H189.059C189.11 120.589 188.958 118.309 188.603 116.232C188.249 114.104 187.691 112.407 186.931 111.14C186.171 109.873 185.158 109.24 183.891 109.24C182.118 109.24 180.598 110.355 179.331 112.584C178.115 114.813 177.381 118.512 177.127 123.68L177.355 124.136C177.305 124.744 177.254 125.377 177.203 126.036C177.203 126.695 177.203 127.379 177.203 128.088C177.203 131.584 177.685 134.421 178.647 136.6C179.661 138.779 180.927 140.375 182.447 141.388C183.967 142.351 185.513 142.832 187.083 142.832C188.147 142.832 189.237 142.68 190.351 142.376C191.517 142.021 192.682 141.413 193.847 140.552C195.013 139.64 196.102 138.373 197.115 136.752L198.483 137.208C197.875 139.133 196.913 141.008 195.595 142.832C194.278 144.656 192.606 146.151 190.579 147.316C188.553 148.481 186.121 149.064 183.283 149.064C179.838 149.064 176.798 148.329 174.163 146.86C171.529 145.391 169.451 143.161 167.931 140.172C166.462 137.183 165.727 133.383 165.727 128.772C165.727 124.06 166.513 120.133 168.083 116.992C169.705 113.851 171.909 111.52 174.695 110C177.533 108.429 180.75 107.644 184.347 107.644ZM238.55 108.708V110.228C237.587 110.481 236.675 111.089 235.814 112.052C234.952 112.964 234.116 114.535 233.306 116.764L222.59 146.86L219.778 152.18L203.21 114.56C202.348 112.584 201.487 111.393 200.626 110.988C199.815 110.532 199.106 110.304 198.498 110.304V108.708C200.17 108.86 201.892 108.987 203.666 109.088C205.49 109.139 207.238 109.164 208.91 109.164C210.987 109.164 212.887 109.113 214.61 109.012C216.332 108.911 217.954 108.809 219.474 108.708V110.304C218.46 110.304 217.498 110.38 216.586 110.532C215.724 110.633 215.116 110.988 214.762 111.596C214.458 112.153 214.61 113.141 215.218 114.56L224.794 137.664L224.11 138.12L229.734 122.388C230.696 119.652 231.102 117.423 230.95 115.7C230.798 113.927 230.24 112.609 229.278 111.748C228.315 110.836 226.998 110.329 225.326 110.228V108.708C226.136 108.759 226.972 108.809 227.834 108.86C228.695 108.86 229.556 108.885 230.418 108.936C231.279 108.936 232.039 108.936 232.698 108.936C233.711 108.936 234.775 108.911 235.89 108.86C237.004 108.809 237.891 108.759 238.55 108.708ZM222.59 146.86L219.702 154.992C219.195 156.259 218.663 157.323 218.106 158.184C217.599 159.096 217.016 159.831 216.358 160.388C215.648 160.996 214.736 161.452 213.622 161.756C212.507 162.111 211.215 162.288 209.746 162.288C208.53 162.288 207.263 162.085 205.946 161.68C204.679 161.275 203.615 160.616 202.754 159.704C201.892 158.792 201.462 157.627 201.462 156.208C201.462 154.637 202.019 153.371 203.134 152.408C204.248 151.496 205.718 151.04 207.542 151.04C209.214 151.04 210.582 151.445 211.646 152.256C212.71 153.067 213.242 154.257 213.242 155.828C213.242 156.841 212.912 157.804 212.254 158.716C211.646 159.628 210.708 160.312 209.442 160.768C209.695 160.819 209.999 160.844 210.354 160.844C210.708 160.844 210.987 160.844 211.19 160.844C212.71 160.844 214.052 160.363 215.218 159.4C216.383 158.437 217.346 156.917 218.106 154.84L220.766 147.012L222.59 146.86ZM249.633 148.532C247.353 148.532 245.453 148.101 243.933 147.24C242.413 146.379 241.298 145.239 240.589 143.82C239.88 142.351 239.525 140.755 239.525 139.032C239.525 136.853 240.006 135.08 240.969 133.712C241.982 132.344 243.274 131.229 244.845 130.368C246.416 129.507 248.062 128.797 249.785 128.24C251.558 127.683 253.23 127.151 254.801 126.644C256.422 126.087 257.714 125.453 258.677 124.744C259.69 123.984 260.197 123.021 260.197 121.856V115.928C260.197 114.611 259.969 113.445 259.513 112.432C259.108 111.368 258.449 110.557 257.537 110C256.676 109.443 255.536 109.164 254.117 109.164C253.104 109.164 252.09 109.316 251.077 109.62C250.064 109.873 249.228 110.329 248.569 110.988C249.988 111.495 251.077 112.28 251.837 113.344C252.648 114.357 253.053 115.523 253.053 116.84C253.053 118.563 252.445 119.931 251.229 120.944C250.064 121.957 248.67 122.464 247.049 122.464C245.225 122.464 243.832 121.907 242.869 120.792C241.957 119.627 241.501 118.233 241.501 116.612C241.501 115.143 241.856 113.927 242.565 112.964C243.325 112.001 244.364 111.089 245.681 110.228C247.1 109.417 248.797 108.784 250.773 108.328C252.8 107.872 254.978 107.644 257.309 107.644C259.64 107.644 261.742 107.897 263.617 108.404C265.492 108.86 267.062 109.721 268.329 110.988C269.494 112.153 270.254 113.597 270.609 115.32C270.964 116.992 271.141 119.12 271.141 121.704V142.376C271.141 143.643 271.268 144.529 271.521 145.036C271.774 145.492 272.205 145.72 272.813 145.72C273.269 145.72 273.7 145.593 274.105 145.34C274.561 145.087 275.042 144.783 275.549 144.428L276.309 145.72C275.245 146.632 274.004 147.341 272.585 147.848C271.217 148.304 269.672 148.532 267.949 148.532C266.074 148.532 264.58 148.279 263.465 147.772C262.35 147.215 261.54 146.48 261.033 145.568C260.577 144.656 260.349 143.592 260.349 142.376C259.133 144.301 257.664 145.821 255.941 146.936C254.218 148 252.116 148.532 249.633 148.532ZM255.029 143.668C256.042 143.668 256.954 143.44 257.765 142.984C258.626 142.477 259.437 141.667 260.197 140.552V124.972C259.741 125.732 259.108 126.416 258.297 127.024C257.486 127.632 256.625 128.265 255.713 128.924C254.801 129.532 253.914 130.216 253.053 130.976C252.242 131.736 251.584 132.673 251.077 133.788C250.57 134.903 250.317 136.245 250.317 137.816C250.317 139.792 250.748 141.261 251.609 142.224C252.47 143.187 253.61 143.668 255.029 143.668ZM303.865 107.644C305.486 107.644 306.804 107.999 307.817 108.708C308.83 109.367 309.565 110.228 310.021 111.292C310.528 112.356 310.781 113.471 310.781 114.636C310.781 116.511 310.224 118.056 309.109 119.272C308.045 120.437 306.626 121.02 304.853 121.02C303.08 121.02 301.686 120.589 300.673 119.728C299.71 118.816 299.229 117.625 299.229 116.156C299.229 114.737 299.533 113.572 300.141 112.66C300.8 111.697 301.61 110.887 302.573 110.228C301.864 110.025 301.154 110.051 300.445 110.304C299.482 110.456 298.57 110.861 297.709 111.52C296.848 112.128 296.113 112.913 295.505 113.876C294.897 114.788 294.416 115.801 294.061 116.916C293.706 117.98 293.529 119.019 293.529 120.032V140.172C293.529 142.604 294.112 144.251 295.277 145.112C296.493 145.973 298.292 146.404 300.673 146.404V148C299.508 147.949 297.81 147.899 295.581 147.848C293.352 147.747 291.021 147.696 288.589 147.696C286.562 147.696 284.51 147.747 282.433 147.848C280.356 147.899 278.785 147.949 277.721 148V146.404C279.494 146.404 280.736 146.024 281.445 145.264C282.205 144.504 282.585 143.06 282.585 140.932V116.992C282.585 114.712 282.23 113.04 281.521 111.976C280.862 110.861 279.596 110.304 277.721 110.304V108.708C279.342 108.86 280.913 108.936 282.433 108.936C284.561 108.936 286.537 108.86 288.361 108.708C290.236 108.505 291.958 108.227 293.529 107.872V114.94C294.137 113.572 294.948 112.331 295.961 111.216C296.974 110.101 298.14 109.24 299.457 108.632C300.774 107.973 302.244 107.644 303.865 107.644ZM348.791 88.492V139.64C348.791 141.92 349.145 143.617 349.855 144.732C350.564 145.796 351.831 146.328 353.655 146.328V147.924C352.084 147.772 350.513 147.696 348.943 147.696C346.815 147.696 344.813 147.772 342.939 147.924C341.115 148.076 339.417 148.355 337.847 148.76V97.612C337.847 95.332 337.492 93.66 336.783 92.596C336.124 91.4813 334.857 90.924 332.983 90.924V89.328C334.604 89.48 336.175 89.556 337.695 89.556C339.772 89.556 341.748 89.48 343.623 89.328C345.497 89.1253 347.22 88.8467 348.791 88.492ZM329.411 107.644C331.64 107.644 333.591 108.024 335.263 108.784C336.985 109.493 338.328 110.709 339.291 112.432L338.379 113.268C337.72 112.052 336.833 111.191 335.719 110.684C334.655 110.127 333.515 109.848 332.299 109.848C329.715 109.848 327.663 111.368 326.143 114.408C324.623 117.397 323.888 122.033 323.939 128.316C323.939 132.623 324.217 136.068 324.775 138.652C325.383 141.185 326.219 143.009 327.283 144.124C328.397 145.239 329.664 145.796 331.083 145.796C332.805 145.796 334.351 145.112 335.719 143.744C337.087 142.376 337.821 140.527 337.923 138.196L338.303 140.856C337.543 143.541 336.301 145.593 334.579 147.012C332.907 148.38 330.703 149.064 327.967 149.064C324.977 149.064 322.292 148.329 319.911 146.86C317.58 145.391 315.756 143.136 314.439 140.096C313.121 137.005 312.463 133.028 312.463 128.164C312.463 123.553 313.197 119.753 314.667 116.764C316.136 113.724 318.137 111.444 320.671 109.924C323.255 108.404 326.168 107.644 329.411 107.644Z" fill="#FFEFCF"/>
<path d="M36.8682 186V185.245C37.5262 185.219 38.0166 185.168 38.3391 185.09C38.6617 185.013 38.8746 184.858 38.9778 184.626C39.0811 184.394 39.1327 184.045 39.1327 183.581V174.716C39.1327 174.252 39.0811 173.91 38.9778 173.69C38.8746 173.458 38.6617 173.297 38.3391 173.206C38.0166 173.116 37.5262 173.065 36.8682 173.052V172.297C37.552 172.31 38.4424 172.323 39.5391 172.335C40.6488 172.348 41.9456 172.355 43.4295 172.355C43.894 172.355 44.3585 172.355 44.823 172.355C45.3004 172.355 45.752 172.348 46.1778 172.335C46.6166 172.323 47.0166 172.31 47.3778 172.297C47.3778 172.929 47.4037 173.561 47.4553 174.194C47.5198 174.813 47.5972 175.432 47.6875 176.052H46.9133C46.7327 175.29 46.5198 174.697 46.2746 174.271C46.0424 173.832 45.7391 173.529 45.3649 173.361C44.9907 173.194 44.5069 173.11 43.9133 173.11H41.0875V183.619C41.0875 184.058 41.1262 184.394 41.2037 184.626C41.2811 184.858 41.4359 185.013 41.6682 185.09C41.9133 185.155 42.2746 185.187 42.752 185.187H43.5649C44.3907 185.187 45.0553 185.084 45.5585 184.877C46.0617 184.658 46.4746 184.265 46.7972 183.697C47.1327 183.129 47.4488 182.323 47.7456 181.277H48.5198C48.4166 182.052 48.3391 182.832 48.2875 183.619C48.2359 184.394 48.2101 185.187 48.2101 186C47.6037 185.974 46.9069 185.961 46.1198 185.961C45.3456 185.948 44.4424 185.942 43.4101 185.942C41.9391 185.942 40.6488 185.948 39.5391 185.961C38.4424 185.961 37.552 185.974 36.8682 186ZM40.4682 179.477V178.742H43.8746V179.477H40.4682ZM44.7069 181.955C44.6424 181.323 44.5391 180.832 44.3972 180.484C44.2553 180.123 44.0424 179.865 43.7585 179.71C43.4746 179.555 43.094 179.477 42.6166 179.477V178.742C43.2746 178.742 43.752 178.555 44.0488 178.181C44.3585 177.794 44.5585 177.155 44.6488 176.265H45.3262C45.2746 177.026 45.2488 177.606 45.2488 178.006C45.2617 178.406 45.2682 178.774 45.2682 179.11C45.2682 179.394 45.2682 179.671 45.2682 179.942C45.2811 180.2 45.294 180.49 45.3069 180.813C45.3327 181.123 45.3585 181.503 45.3843 181.955H44.7069ZM69.6381 186.271C68.9027 186.271 68.2704 186.194 67.7414 186.039C67.2252 185.884 66.7994 185.729 66.464 185.574C66.1285 185.419 65.864 185.342 65.6704 185.342C65.5027 185.342 65.3672 185.413 65.264 185.555C65.1736 185.697 65.1027 185.903 65.0511 186.174H64.2769C64.3027 185.89 64.322 185.542 64.3349 185.129C64.3478 184.716 64.3543 184.187 64.3543 183.542C64.3672 182.897 64.3736 182.09 64.3736 181.123H65.1478C65.2511 182.477 65.6769 183.548 66.4252 184.335C67.1736 185.11 68.1478 185.497 69.3478 185.497C70.2123 185.497 70.9027 185.277 71.4188 184.839C71.9478 184.387 72.2123 183.781 72.2123 183.019C72.2123 182.542 72.0962 182.123 71.864 181.761C71.6446 181.387 71.2833 181.045 70.7801 180.735C70.2898 180.426 69.6317 180.123 68.8059 179.826C67.8123 179.465 66.9994 179.077 66.3672 178.665C65.7478 178.252 65.2898 177.794 64.993 177.29C64.7091 176.774 64.5672 176.194 64.5672 175.548C64.5672 174.826 64.7285 174.2 65.0511 173.671C65.3865 173.142 65.8575 172.735 66.464 172.452C67.0704 172.168 67.7801 172.026 68.593 172.026C69.264 172.026 69.8252 172.103 70.2769 172.258C70.7285 172.4 71.1027 172.548 71.3994 172.703C71.6962 172.858 71.9478 172.935 72.1543 172.935C72.3091 172.935 72.4381 172.871 72.5414 172.742C72.6446 172.6 72.722 172.394 72.7736 172.123H73.5478C73.522 172.406 73.5027 172.729 73.4898 173.09C73.4769 173.439 73.464 173.877 73.4511 174.406C73.4511 174.935 73.4511 175.613 73.4511 176.439H72.6575C72.5543 175.329 72.1607 174.445 71.4769 173.787C70.793 173.116 69.9349 172.781 68.9027 172.781C68.0898 172.781 67.4575 172.981 67.0059 173.381C66.5672 173.768 66.3478 174.303 66.3478 174.987C66.3478 175.439 66.464 175.845 66.6962 176.206C66.9285 176.555 67.3091 176.89 67.8381 177.213C68.3801 177.523 69.1027 177.845 70.0059 178.181C71.4769 178.723 72.5349 179.329 73.1801 180C73.8252 180.671 74.1478 181.497 74.1478 182.477C74.1478 183.639 73.7414 184.561 72.9285 185.245C72.1156 185.929 71.0188 186.271 69.6381 186.271ZM91.0471 186V185.245C91.8213 185.219 92.3955 185.161 92.7697 185.071C93.1568 184.981 93.4149 184.806 93.5439 184.548C93.6729 184.29 93.7375 183.91 93.7375 183.406V173.11H92.6729C92.1052 173.11 91.6342 173.219 91.26 173.439C90.8988 173.645 90.5955 174.013 90.3504 174.542C90.1052 175.071 89.8858 175.813 89.6923 176.768H88.9181C89.0471 175.968 89.1375 175.206 89.1891 174.484C89.2536 173.748 89.2858 173.019 89.2858 172.297C89.8149 172.31 90.3826 172.323 90.9891 172.335C91.6084 172.348 92.2407 172.355 92.8858 172.355C93.531 172.355 94.1439 172.355 94.7246 172.355C95.2407 172.355 95.8149 172.355 96.4471 172.355C97.0923 172.355 97.731 172.348 98.3633 172.335C99.0084 172.323 99.5955 172.31 100.125 172.297C100.137 173.006 100.17 173.735 100.221 174.484C100.286 175.219 100.383 175.981 100.512 176.768H99.7181C99.5762 176.045 99.4149 175.452 99.2342 174.987C99.0665 174.51 98.8665 174.135 98.6342 173.865C98.4149 173.581 98.1504 173.387 97.8407 173.284C97.5439 173.168 97.1826 173.11 96.7568 173.11H95.6923V183.406C95.6923 183.91 95.7568 184.29 95.8858 184.548C96.0149 184.806 96.2665 184.981 96.6407 185.071C97.0278 185.161 97.6084 185.219 98.3826 185.245V186C97.9826 185.974 97.4536 185.961 96.7955 185.961C96.1504 185.948 95.46 185.942 94.7246 185.942C93.9375 185.942 93.2213 185.948 92.5762 185.961C91.931 185.961 91.4213 185.974 91.0471 186ZM115.717 186.271C115.278 186.271 114.917 186.135 114.633 185.865C114.349 185.594 114.207 185.245 114.207 184.819C114.207 184.406 114.349 184.065 114.633 183.794C114.917 183.523 115.278 183.387 115.717 183.387C116.155 183.387 116.517 183.523 116.801 183.794C117.084 184.065 117.226 184.406 117.226 184.819C117.226 185.245 117.084 185.594 116.801 185.865C116.517 186.135 116.155 186.271 115.717 186.271ZM159.166 186.097C159.075 186.058 158.862 186.032 158.527 186.019C158.191 186.006 157.83 186 157.443 186H150.727V185.284C151.54 184.677 152.275 184.097 152.933 183.542C153.591 182.987 154.159 182.445 154.637 181.916C155.114 181.374 155.482 180.839 155.74 180.31C155.998 179.768 156.127 179.206 156.127 178.626C156.127 177.968 155.946 177.477 155.585 177.155C155.237 176.819 154.72 176.652 154.037 176.652C153.495 176.652 153.069 176.729 152.759 176.884C152.45 177.039 152.295 177.239 152.295 177.484C152.295 177.639 152.353 177.794 152.469 177.948C152.585 178.103 152.695 178.271 152.798 178.452C152.901 178.632 152.953 178.839 152.953 179.071C152.953 179.342 152.856 179.561 152.662 179.729C152.482 179.884 152.237 179.961 151.927 179.961C151.553 179.961 151.25 179.839 151.017 179.594C150.785 179.348 150.669 179.013 150.669 178.587C150.669 178.045 150.85 177.561 151.211 177.135C151.572 176.71 152.069 176.374 152.701 176.129C153.333 175.884 154.037 175.761 154.811 175.761C155.817 175.761 156.624 175.987 157.23 176.439C157.837 176.877 158.14 177.516 158.14 178.355C158.14 178.832 158.017 179.297 157.772 179.748C157.54 180.187 157.191 180.639 156.727 181.103C156.275 181.568 155.727 182.065 155.082 182.594C154.437 183.11 153.714 183.677 152.914 184.297V184.413H156.862C157.417 184.413 157.791 184.316 157.985 184.123C158.191 183.929 158.32 183.574 158.372 183.058H159.088C159.088 183.858 159.095 184.477 159.108 184.916C159.12 185.355 159.14 185.748 159.166 186.097ZM179.354 186.271C178.36 186.271 177.489 186.058 176.741 185.632C175.992 185.194 175.405 184.594 174.979 183.832C174.567 183.058 174.36 182.168 174.36 181.161C174.36 180.103 174.579 179.168 175.018 178.355C175.47 177.542 176.083 176.91 176.857 176.458C177.644 175.994 178.554 175.761 179.586 175.761C180.579 175.761 181.45 175.974 182.199 176.4C182.947 176.826 183.528 177.426 183.941 178.2C184.367 178.961 184.579 179.845 184.579 180.852C184.579 181.91 184.354 182.845 183.902 183.658C183.463 184.471 182.85 185.11 182.063 185.574C181.276 186.039 180.373 186.271 179.354 186.271ZM179.431 185.516C180.399 185.516 181.16 185.103 181.715 184.277C182.283 183.452 182.567 182.335 182.567 180.929C182.567 179.561 182.289 178.484 181.734 177.697C181.192 176.897 180.444 176.497 179.489 176.497C178.521 176.497 177.76 176.91 177.205 177.735C176.65 178.561 176.373 179.677 176.373 181.084C176.373 182.465 176.644 183.548 177.186 184.335C177.741 185.123 178.489 185.516 179.431 185.516ZM208.476 186.097C208.386 186.058 208.173 186.032 207.838 186.019C207.502 186.006 207.141 186 206.754 186H200.038V185.284C200.85 184.677 201.586 184.097 202.244 183.542C202.902 182.987 203.47 182.445 203.947 181.916C204.425 181.374 204.792 180.839 205.05 180.31C205.309 179.768 205.438 179.206 205.438 178.626C205.438 177.968 205.257 177.477 204.896 177.155C204.547 176.819 204.031 176.652 203.347 176.652C202.805 176.652 202.38 176.729 202.07 176.884C201.76 177.039 201.605 177.239 201.605 177.484C201.605 177.639 201.663 177.794 201.78 177.948C201.896 178.103 202.005 178.271 202.109 178.452C202.212 178.632 202.263 178.839 202.263 179.071C202.263 179.342 202.167 179.561 201.973 179.729C201.792 179.884 201.547 179.961 201.238 179.961C200.863 179.961 200.56 179.839 200.328 179.594C200.096 179.348 199.98 179.013 199.98 178.587C199.98 178.045 200.16 177.561 200.521 177.135C200.883 176.71 201.38 176.374 202.012 176.129C202.644 175.884 203.347 175.761 204.121 175.761C205.128 175.761 205.934 175.987 206.541 176.439C207.147 176.877 207.45 177.516 207.45 178.355C207.45 178.832 207.328 179.297 207.083 179.748C206.85 180.187 206.502 180.639 206.038 181.103C205.586 181.568 205.038 182.065 204.392 182.594C203.747 183.11 203.025 183.677 202.225 184.297V184.413H206.173C206.728 184.413 207.102 184.316 207.296 184.123C207.502 183.929 207.631 183.574 207.683 183.058H208.399C208.399 183.858 208.405 184.477 208.418 184.916C208.431 185.355 208.45 185.748 208.476 186.097ZM228.664 186.271C227.671 186.271 226.8 186.058 226.051 185.632C225.303 185.194 224.716 184.594 224.29 183.832C223.877 183.058 223.671 182.168 223.671 181.161C223.671 180.103 223.89 179.168 224.329 178.355C224.78 177.542 225.393 176.91 226.167 176.458C226.955 175.994 227.864 175.761 228.896 175.761C229.89 175.761 230.761 175.974 231.509 176.4C232.258 176.826 232.838 177.426 233.251 178.2C233.677 178.961 233.89 179.845 233.89 180.852C233.89 181.91 233.664 182.845 233.213 183.658C232.774 184.471 232.161 185.11 231.374 185.574C230.587 186.039 229.684 186.271 228.664 186.271ZM228.742 185.516C229.709 185.516 230.471 185.103 231.026 184.277C231.593 183.452 231.877 182.335 231.877 180.929C231.877 179.561 231.6 178.484 231.045 177.697C230.503 176.897 229.755 176.497 228.8 176.497C227.832 176.497 227.071 176.91 226.516 177.735C225.961 178.561 225.684 179.677 225.684 181.084C225.684 182.465 225.955 183.548 226.496 184.335C227.051 185.123 227.8 185.516 228.742 185.516Z" fill="white"/>
</svg>
